HIERARCHY
ROOT Pelvis
{
	OFFSET 0.000000 0.000000 0.000000
	CHANNELS 6 Xposition Yposition Zposition Xrotation Yrotation Zrotation
	JOINT LeftUpLeg_virtual
	{
		OFFSET 0.000000 0.000000 0.000000
		CHANNELS 3 Xrotation Yrotation Zrotation
		JOINT LeftUpLeg
		{
			OFFSET 18.735201 -5.666702 -4.541200
			CHANNELS 3 Xrotation Yrotation Zrotation
			JOINT LeftLeg
			{
				OFFSET -0.021200 -31.938179 0.493100
				CHANNELS 3 Xrotation Yrotation Zrotation
				JOINT LeftFoot
				{
					OFFSET 0.021200 -31.938179 -4.336299
					CHANNELS 3 Xrotation Yrotation Zrotation
					JOINT LeftToeBase
					{
						OFFSET 0.943001 -26.722000 15.023500
						CHANNELS 3 Xrotation Yrotation Zrotation
						End Site
						{
							OFFSET 0 0 0
						}
					}
				}
			}
		}
	}
	JOINT RightUpLeg_virtual
	{
		OFFSET 0.000000 0.000000 0.000000
		CHANNELS 3 Xrotation Yrotation Zrotation
		JOINT RightUpLeg
		{
			OFFSET -18.735201 -5.666702 -4.541200
			CHANNELS 3 Xrotation Yrotation Zrotation
			JOINT RightLeg
			{
				OFFSET 0.018946 -31.938133 0.493100
				CHANNELS 3 Xrotation Yrotation Zrotation
				JOINT RightFoot
				{
					OFFSET -0.018946 -31.938126 -4.336299
					CHANNELS 3 Xrotation Yrotation Zrotation
					JOINT RightToeBase
					{
						OFFSET -0.943001 -26.722004 15.023500
						CHANNELS 3 Xrotation Yrotation Zrotation
						End Site
						{
							OFFSET 0 0 0
						}
					}
				}
			}
		}
	}
	JOINT Hips_virtual
	{
		OFFSET 0.000000 0.000000 0.000000
		CHANNELS 3 Xrotation Yrotation Zrotation
		JOINT Hips
		{
			OFFSET -0.000000 -0.000000 -0.000000
			CHANNELS 3 Xrotation Yrotation Zrotation
			JOINT Spine
			{
				OFFSET 0.000000 10.199997 -0.299500
				CHANNELS 3 Xrotation Yrotation Zrotation
				JOINT Spine1
				{
					OFFSET 0.000000 11.900002 -1.516600
					CHANNELS 3 Xrotation Yrotation Zrotation
					JOINT Spine2
					{
						OFFSET 0.000000 13.600006 -2.842500
						CHANNELS 3 Xrotation Yrotation Zrotation
						JOINT Neck_virtual
						{
							OFFSET 0.000000 0.000000 0.000000
							CHANNELS 3 Xrotation Yrotation Zrotation
							JOINT Neck
							{
								OFFSET 0.000000 9.624100 -2.890100
								CHANNELS 3 Xrotation Yrotation Zrotation
								JOINT Head
								{
									OFFSET 0.000000 14.068802 -1.351900
									CHANNELS 3 Xrotation Yrotation Zrotation
									End Site
									{
										OFFSET 0 0 0
									}
								}
							}
						}
						JOINT LeftShoulder_virtual
						{
							OFFSET 0.000000 0.000000 0.000000
							CHANNELS 3 Xrotation Yrotation Zrotation
							JOINT LeftShoulder
							{
								OFFSET 15.263000 10.923401 -0.547700
								CHANNELS 3 Xrotation Yrotation Zrotation
								JOINT LeftArm
								{
									OFFSET 25.438599 -2.830597 -13.032500
									CHANNELS 3 Xrotation Yrotation Zrotation
									JOINT LeftForeArm
									{
										OFFSET 29.960503 0.000000 0.000000
										CHANNELS 3 Xrotation Yrotation Zrotation
										JOINT LeftHand
										{
											OFFSET 27.849251 0.000000 0.000000
											CHANNELS 3 Xrotation Yrotation Zrotation
											End Site
											{
												OFFSET 0 0 0
											}
										}
									}
								}
							}
						}
						JOINT RightShoulder_virtual
						{
							OFFSET 0.000000 0.000000 0.000000
							CHANNELS 3 Xrotation Yrotation Zrotation
							JOINT RightShoulder
							{
								OFFSET -15.263000 10.923401 -0.547700
								CHANNELS 3 Xrotation Yrotation Zrotation
								JOINT RightArm
								{
									OFFSET -25.438599 -2.830597 -13.032500
									CHANNELS 3 Xrotation Yrotation Zrotation
									JOINT RightForeArm
									{
										OFFSET -29.960503 0.000000 0.000000
										CHANNELS 3 Xrotation Yrotation Zrotation
										JOINT RightHand
										{
											OFFSET -27.849251 0.000000 0.000000
											CHANNELS 3 Xrotation Yrotation Zrotation
											End Site
											{
												OFFSET 0 0 0
											}
										}
									}
								}
							}
						}
					}
				}
			}
		}
	}
}
MOTION
Frames: 11
Frame Time: 0.03333333
2.366275 55.474628 -2.532537 0.000000 0.000000 0.000000 179.975239 8.129334 162.995225 -116.411832 5.519680 53.237370 82.288132 0.476371 -2.578712 11.912730 0.670599 -8.004289 0.000000 0.000000 0.000000 -176.120594 27.442792 166.520517 -85.757779 36.576431 3.746629 66.293017 8.142183 5.467119 -3.178784 0.245933 26.113623 0.000000 0.000000 0.000000 2.598945 55.265704 -2.591880 -176.043591 48.489538 157.504381 10.534395 7.981985 -4.905060 5.103376 5.179783 -3.423841 0.000000 0.000000 0.000000 5.498960 8.595761 -1.857448 0.474072 4.709863 -0.330343 0.000000 0.000000 0.000000 8.004986 4.409302 -4.271865 2.579485 -4.618113 -12.861855 37.253716 -24.918760 -42.029118 22.239494 -34.562663 0.779441 0.000000 0.000000 0.000000 6.643693 2.412073 -0.262272 2.794308 1.130272 5.529966 30.216641 3.777732 50.808674 12.836665 34.092753 6.147909 0.000000 0.000000 0.000000 
0.873775 55.210712 -3.865337 0.000000 0.000000 0.000000 -177.059308 2.469989 158.753814 -118.547960 1.508167 53.362065 83.804140 -0.374476 -2.023728 13.456313 -0.449974 -8.171322 0.000000 0.000000 0.000000 -179.827966 27.681787 168.758975 -82.461707 40.236805 -0.492359 65.429661 7.971869 6.542126 -2.849485 -0.284583 27.308775 0.000000 0.000000 0.000000 -2.398427 60.572795 -1.860210 -171.239085 46.585254 157.115825 8.730046 7.886930 -5.092170 4.302220 5.389171 -3.416858 0.000000 0.000000 0.000000 5.310056 8.935113 -1.811171 0.436497 5.064044 0.023634 0.000000 0.000000 0.000000 7.153526 4.392582 -4.410535 2.227906 -5.743918 -11.879381 35.562541 -25.380614 -43.765001 22.901008 -34.118038 0.650569 0.000000 0.000000 0.000000 6.029898 2.718369 -0.655014 3.212711 -0.745085 5.618593 34.502096 2.992238 49.956697 12.986255 36.378728 6.806061 0.000000 0.000000 0.000000 
0.729827 55.450729 -6.836769 0.000000 0.000000 0.000000 -177.679585 -3.964670 150.484531 -122.911945 -1.630342 51.030304 84.213091 -1.148095 -2.143295 13.005000 -1.015909 -9.075745 0.000000 0.000000 0.000000 179.243794 27.051985 169.029765 -82.383754 41.081409 -1.509099 66.583095 8.066688 7.389111 -2.183048 -0.611772 28.411073 0.000000 0.000000 0.000000 2.882049 62.166326 -3.211410 -170.002179 46.084126 157.990827 10.325226 7.039790 -5.192568 4.458666 5.188505 -3.202406 0.000000 0.000000 0.000000 6.662157 9.104958 -1.994459 0.572124 5.240278 -0.147178 0.000000 0.000000 0.000000 7.107137 4.922714 -4.366541 1.283225 -7.802119 -11.854310 35.864893 -25.389867 -41.806031 23.561316 -32.421067 1.027566 0.000000 0.000000 0.000000 5.896980 2.906275 -0.832371 3.256024 -2.742039 5.047448 35.139773 5.530411 50.567347 12.291026 39.024122 7.262435 0.000000 0.000000 0.000000 
0.859876 55.287189 -7.424290 0.000000 0.000000 0.000000 177.388714 -5.305045 148.507041 -125.232242 -0.086788 49.361852 85.345181 -1.218554 -2.404313 14.113760 -0.999626 -9.495915 0.000000 0.000000 0.000000 178.131497 27.617539 169.190438 -81.558012 41.788853 -3.125183 66.075967 8.107271 9.006393 -2.780167 -1.607344 30.158946 0.000000 0.000000 0.000000 0.806990 65.147622 -2.030723 -165.274923 45.336812 155.862513 9.024615 6.849589 -4.569700 5.008081 5.412762 -3.721212 0.000000 0.000000 0.000000 6.595291 9.084250 -1.945208 0.578917 5.336100 -0.125753 0.000000 0.000000 0.000000 8.140676 4.879863 -4.808464 0.831889 -8.596421 -11.283398 33.847665 -23.982695 -43.243936 22.217202 -30.604370 -0.185819 0.000000 0.000000 0.000000 6.404657 3.159582 -0.936021 2.927618 -5.348599 6.212692 35.904320 2.038152 52.021384 12.114285 40.083242 8.311758 0.000000 0.000000 0.000000 
1.630060 57.110626 -7.569920 0.000000 0.000000 0.000000 176.628187 -10.701575 144.031122 -126.539363 -2.237300 48.358692 85.894642 -1.851646 -1.653477 14.873767 -2.017691 -9.201511 0.000000 0.000000 0.000000 178.376018 26.985104 168.091720 -83.890050 41.629757 -1.874647 69.442431 9.192245 8.781902 -1.230399 -0.567805 30.903608 0.000000 0.000000 0.000000 7.228343 69.960883 -6.841233 -155.106930 52.377664 147.017267 12.075179 7.027103 -5.561006 6.295983 5.250540 -3.849783 0.000000 0.000000 0.000000 7.615834 8.929364 -2.256384 0.492731 5.227392 -0.148188 0.000000 0.000000 0.000000 8.797112 4.732267 -5.246009 0.653848 -8.643490 -11.145717 34.456788 -25.078870 -42.975376 22.736378 -33.158799 -0.235723 0.000000 0.000000 0.000000 7.055971 3.602060 -0.967694 3.528111 -4.715784 6.194509 37.913076 3.612025 51.165200 12.019556 45.498950 8.894559 0.000000 0.000000 0.000000 
1.616534 56.503731 -7.947269 0.000000 0.000000 0.000000 178.473895 -9.008097 143.827405 -127.339028 -2.619093 48.787102 86.861025 -1.892436 -1.710069 15.856539 -2.078172 -9.329876 0.000000 0.000000 0.000000 179.023875 25.812125 167.594250 -85.475494 40.886551 -0.849496 68.636462 8.726286 8.610977 -2.302026 -1.073787 30.027509 0.000000 0.000000 0.000000 1.191072 67.197805 -1.191596 -161.739235 51.746459 159.908498 10.595972 6.853199 -5.144939 6.471403 5.447572 -3.959625 0.000000 0.000000 0.000000 6.882304 8.977621 -2.021955 0.531082 5.212826 -0.082494 0.000000 0.000000 0.000000 8.710304 4.825258 -5.600452 0.472897 -9.856586 -10.734529 29.702976 -22.616734 -46.132491 21.005374 -31.568520 -2.110480 0.000000 0.000000 0.000000 7.337365 3.712674 -1.014340 3.396820 -5.262182 5.691684 35.709489 2.392205 49.865756 12.464729 42.776228 8.648239 0.000000 0.000000 0.000000 
-0.326696 55.729713 -7.928062 0.000000 0.000000 0.000000 178.153573 -6.684473 147.943687 -126.294856 -0.983418 49.782742 86.077719 -2.182264 -1.282630 15.120104 -2.525877 -9.107170 0.000000 0.000000 0.000000 178.985312 25.672630 167.117408 -86.056197 40.383709 -1.261365 67.486169 8.341871 9.321288 -2.675591 -1.737264 30.459065 0.000000 0.000000 0.000000 8.102057 68.997287 -5.123918 -168.683679 54.680015 164.059177 8.044519 8.415757 -4.378201 5.543072 5.480338 -3.567919 0.000000 0.000000 0.000000 6.256143 9.606299 -1.828791 0.137507 5.476018 -0.092916 0.000000 0.000000 0.000000 8.845759 5.137711 -5.597959 0.599415 -11.556531 -9.866426 30.626988 -21.292131 -42.515301 21.056744 -31.849391 -1.537818 0.000000 0.000000 0.000000 6.846099 4.216046 -0.983528 2.978924 -6.260154 5.338770 34.521306 4.336477 50.646314 11.869214 45.623533 9.863591 0.000000 0.000000 0.000000 
0.428531 55.512215 -6.955116 0.000000 0.000000 0.000000 -176.737838 -14.079178 142.815390 -127.880402 -6.746355 50.279167 86.073252 -1.299825 -0.908470 15.059712 -1.913412 -7.844758 0.000000 0.000000 0.000000 178.317770 26.560026 166.896314 -85.431480 40.260543 -2.872615 68.358582 8.457325 8.396250 -2.278286 -1.074501 29.520153 0.000000 0.000000 0.000000 13.319967 69.072761 -9.099386 -169.401723 54.978283 162.324309 9.760479 8.248032 -3.704736 5.852992 5.448426 -3.641222 0.000000 0.000000 0.000000 7.418897 9.641384 -2.107929 0.339218 5.377426 -0.067878 0.000000 0.000000 0.000000 9.673079 4.704294 -5.721397 0.522363 -11.462408 -8.631645 33.066664 -20.364054 -41.393224 21.787598 -33.932646 -0.391253 0.000000 0.000000 0.000000 8.174233 4.113056 -1.231805 3.197590 -7.922117 6.250867 35.124350 2.459899 49.783562 10.953570 47.474756 10.103057 0.000000 0.000000 0.000000 
-0.420169 55.168030 -6.221073 0.000000 0.000000 0.000000 -176.406069 -14.193036 144.541406 -127.236234 -6.620616 50.892388 85.281674 -1.841970 -0.483148 13.799393 -2.527335 -7.865610 0.000000 0.000000 0.000000 179.218222 26.642504 167.285061 -84.817269 39.693248 -1.962540 68.894411 8.733993 8.846639 -1.844490 -1.033170 30.333977 0.000000 0.000000 0.000000 17.698898 69.464520 -11.794439 -174.003222 54.470830 164.993519 9.777472 8.527572 -3.777663 6.086308 5.497186 -3.556659 0.000000 0.000000 0.000000 7.311990 9.873329 -2.406112 0.281896 5.455168 -0.316049 0.000000 0.000000 0.000000 9.560245 4.717146 -5.828761 0.498382 -12.285488 -8.164421 30.236240 -20.166354 -42.475304 20.824883 -34.552950 -1.480217 0.000000 0.000000 0.000000 7.954712 4.177213 -0.936385 3.365312 -8.117337 7.009108 35.215260 2.010578 50.444311 10.964267 45.636128 10.668102 0.000000 0.000000 0.000000 
-0.751424 55.102764 -5.527908 0.000000 0.000000 0.000000 -174.690653 -11.248293 149.658843 -125.419704 -5.741961 52.968134 87.025913 -2.486319 -0.435530 14.117693 -3.099340 -8.456155 0.000000 0.000000 0.000000 178.424280 27.501002 167.131997 -84.332161 39.982568 -3.264656 68.503615 7.870691 8.946424 -2.070419 -1.769228 29.670987 0.000000 0.000000 0.000000 23.250422 70.635501 -15.491690 -179.487263 54.071114 171.505053 9.503981 8.730410 -3.699481 5.978467 5.551027 -3.604825 0.000000 0.000000 0.000000 7.222707 9.906514 -2.376284 0.200160 5.594890 -0.411692 0.000000 0.000000 0.000000 9.679981 4.818173 -5.839096 0.706378 -11.154891 -8.343526 29.254185 -19.055475 -42.677293 20.047971 -34.593849 -2.129886 0.000000 0.000000 0.000000 8.212740 4.237460 -0.947701 3.291402 -8.495546 6.072089 34.462358 0.461974 50.289792 10.668935 47.274652 10.344499 0.000000 0.000000 0.000000 
0.330998 55.593796 -5.694839 0.000000 0.000000 0.000000 -172.600861 -10.606912 149.978305 -124.043366 -6.439252 53.328211 86.250406 -2.767549 -0.010114 13.771290 -3.547638 -8.214512 0.000000 0.000000 0.000000 177.898670 27.172859 168.820119 -81.939027 40.736215 -4.244647 67.136463 7.327108 8.851066 -2.489469 -2.090312 29.124487 0.000000 0.000000 0.000000 23.108856 69.242518 -14.855064 -178.831988 56.928336 168.479948 9.968576 9.181790 -3.871560 6.236400 5.750397 -3.524314 0.000000 0.000000 0.000000 7.874098 9.957538 -2.377955 0.577845 5.686760 -0.424984 0.000000 0.000000 0.000000 9.636979 4.890246 -5.883321 0.609281 -10.789530 -8.211450 29.541456 -18.350652 -41.501845 20.742280 -34.457574 -1.538591 0.000000 0.000000 0.000000 8.314376 4.451660 -1.015175 3.701329 -8.072934 6.315203 34.864134 0.273040 48.909362 10.806860 48.193070 9.397796 0.000000 0.000000 0.000000 
